<svg width="512" height="512" viewBox="0 0 512 512" fill="none" xmlns="http://www.w3.org/2000/svg">
<circle cx="256" cy="256" r="256" fill="black" fill-opacity="0.9"/>
<path d="M40.2812 299.5C41.5469 337.469 75.0156 361.094 117.344 361.094C163.188 361.094 188.922 332.828 188.922 300.625C188.922 275.734 173.031 259.562 140.266 248.594L125.078 243.25C98.0781 233.969 86.5469 223.422 86.5469 206.266C86.5469 186.438 104.266 169.422 134.922 169.422C165.016 169.422 184.562 186.016 185.969 209.641H205.234C204.391 174.484 175.141 151.984 135.062 151.984C94.8438 151.984 66.7188 174.625 66.7188 207.672C66.7188 233.688 82.4688 249.156 116.359 260.828L131.406 266.031C157.562 275.031 168.672 285.297 168.672 304.141C168.672 328.891 147.156 343.656 117.625 343.656C84.1562 343.656 61.9375 325.656 59.5469 299.5H40.2812Z" fill="white"/>
<path d="M227.031 358L246.578 265.891H339.391L343.047 248.734H250.375L266.547 172.516H367.516L371.172 155.078H250.656L207.484 358H227.031ZM404.219 181.375C411.109 181.375 416.594 175.891 416.594 169C416.594 162.109 411.109 156.625 404.219 156.625C397.328 156.625 391.703 162.109 391.703 169C391.703 175.891 397.328 181.375 404.219 181.375ZM354.438 358H373.281L404.359 211.75H385.516L354.438 358ZM429.391 359.266C436.703 359.266 442.469 353.5 442.469 346.188C442.469 338.734 436.703 332.969 429.391 332.969C422.078 332.969 416.172 338.734 416.172 346.188C416.172 353.5 422.078 359.266 429.391 359.266Z" fill="#FF0000"/>
</svg>
